# xmcd
#
# Track frame offsets: 
#        150
#        13753
#        31386
#        50523
#        67006
#        80156
#        99177
#        113874
#        131765
#
# Disc length: 1973 seconds
#
# Revision: 0
# Processed by: cddbd v1.5.1PL0 Copyright (c) Steve Scherf et al.
# Submitted via: ExactAudioCopy v0.95a5
#
DISCID=7807b309
DTITLE=Michael Crouch And The Coyote Moon Band - Strong
DYEAR=2003
DGENRE=Country
TTITLE0=This Life That I Live
TTITLE1=Strong Enough
TTITLE2=Smoke And Mirrors
TTITLE3=South Of Heaven
TTITLE4=Loiusiana Blues
TTITLE5=It Would Be All Right
TTITLE6=Short On Time
TTITLE7=I Want To Dream
TTITLE8=One Day Of A Lifetime
EXTD=
EXTT0=
EXTT1=
EXTT2=
EXTT3=
EXTT4=
EXTT5=
EXTT6=
EXTT7=
EXTT8=
PLAYORDER=
